<?xml version="1.0" encoding="UTF-8" standalone="no"?>
<svg
   xmlns:dc="http://purl.org/dc/elements/1.1/"
   xmlns:cc="http://creativecommons.org/ns#"
   xmlns:rdf="http://www.w3.org/1999/02/22-rdf-syntax-ns#"
   xmlns:svg="http://www.w3.org/2000/svg"
   xmlns="http://www.w3.org/2000/svg"
   width="186mm"
   height="40mm"
   viewBox="0 0 186 40"
   version="1.1"
   id="svg8">
  <defs
     id="defs2" />
  <metadata
     id="metadata5">
    <rdf:RDF>
      <cc:Work
         rdf:about="">
        <dc:format>image/svg+xml</dc:format>
        <dc:type
           rdf:resource="http://purl.org/dc/dcmitype/StillImage" />
        <dc:title></dc:title>
      </cc:Work>
    </rdf:RDF>
  </metadata>
  <text
     id="text4714"
     y="-239.47125"
     x="8.639678"
     style="font-style:normal;font-weight:normal;font-size:10.58333302px;line-height:6.61458302px;font-family:sans-serif;letter-spacing:0px;word-spacing:0px;fill:#ff1710;fill-opacity:1;stroke:none;stroke-width:0.26458332"
     xml:space="preserve"><tspan
       id="tspan4716"
       style="fill:#ff1710;fill-opacity:1;stroke-width:0.26458332"
       y="-233.12305"
       x="8.639678" /></text>
  <g
     transform="translate(-1.941896,-0.64729866)"
     id="g4997">
    <path
       style="opacity:1;fill:#ff1710;fill-opacity:1;stroke-width:0.33286288"
       d="m 97.58205,3.3381208 a 9.4667434,9.4667434 0 0 0 -9.467122,9.4671222 9.4667434,9.4667434 0 0 0 9.467122,9.466605 9.4667434,9.4667434 0 0 0 9.4666,-9.466605 9.4667434,9.4667434 0 0 0 -9.4666,-9.4671222 z m 0,3.7222533 a 5.7447753,5.7447753 0 0 1 5.74487,5.7448689 5.7447753,5.7447753 0 0 1 -5.74487,5.744868 5.7447753,5.7447753 0 0 1 -5.744869,-5.744868 5.7447753,5.7447753 0 0 1 5.744869,-5.7448689 z"
       id="path4873" />
    <path
       style="opacity:1;fill:#ff1710;fill-opacity:1;stroke-width:0.21330282"
       d="m 80.164901,3.5644188 a 9.2626914,9.2626914 0 0 0 -9.262483,9.2624832 9.2626914,9.2626914 0 0 0 9.262483,9.262999 9.2626914,9.2626914 0 0 0 8.324556,-5.217252 H 84.32227 a 5.806909,5.806909 0 0 1 -4.157369,1.761133 5.806909,5.806909 0 0 1 -5.806882,-5.80688 5.806909,5.806909 0 0 1 5.806882,-5.8068802 5.806909,5.806909 0 0 1 4.27209,1.882572 h 4.105693 a 9.2626914,9.2626914 0 0 0 -8.377783,-5.338175 z"
       id="path4534" />
    <path
       id="path211"
       style="fill:#ff1710;fill-opacity:1;stroke-width:0.26458335"
       d="M 40.669236,3.1868843 35.36465,15.02079 29.822351,3.2184073 25.642763,3.1972133 v 9.2604177 9.259898 h 1.977657 l 2.143022,-0.02326 c 0.01709,-2.778371 -0.08727,-5.532845 -0.01963,-8.310602 l 3.678327,8.333856 h 1.684137 1.683617 l 4.475179,-8.641331 -0.01188,8.641331 h 1.719792 1.719791 V 12.45711 3.1972113 Z m -36.9868901,0.01034 v 9.2604177 9.260932 h 1.984375 1.984375 v -3.571875 -3.571875 h 3.0525271 l 3.189468,-0.01704 0.01497,-2.068092 -0.0067,-1.884121 H 10.67055 7.7689169 l 0.0072,-1.7859387 0.0072,-1.785937 3.0478761,-0.02791 2.90525,-0.0036 V 5.0405313 3.1972353 H 8.7094049 Z M 13.893091,14.557777 v 0.0047 l 0.0031,-0.0047 z m 0.0031,0 h 0.01603 c -1.580121,2.38158 -3.315349,4.758142 -4.8854891,7.146332 0,0 0.860583,0.01447 2.1502561,0.01447 h 1.937866 l 1.038696,-1.449525 1.03818,-1.449523 3.108854,-0.0062 3.108855,-0.0057 v 1.455209 1.455208 h 1.719791 1.719792 V 12.457655 3.1972373 l -1.256771,0.0036 c -0.691224,0.0021 -1.822111,0.08165 -1.822111,0.08165 L 14.985024,12.968206 Z M 45.486507,3.1972293 v 9.2604177 9.260416 h 1.852084 1.852083 V 12.457647 3.1972293 h -1.852083 z m 4.497917,0 v 9.2604177 9.260416 h 4.101042 4.101041 v -3.849894 l -4.365625,0.01344 -0.07028,-7.342187 -0.07028,-7.3421877 h -1.84795 z m 3.859712,0.031 5.790343,10.9714247 0.140044,7.541141 3.883485,-0.01344 0.06511,-7.527705 5.834786,-10.9362837 -4.355806,-0.02842 -3.627683,6.8548807 -3.595648,-6.8249067 z m 123.471024,0.148313 -4.56407,0.03152 V 12.69535 l 5.3e-4,9.28729 h 1.85209 1.85208 l 0.005,-8.764322 5.59604,8.764322 3.91501,-0.03307 c 0,0 -2.35038,-4.388192 -3.35122,-6.381523 0.86529,-0.446389 1.41495,-0.746908 2.10788,-1.409218 1.15821,-1.294495 1.51619,-2.846285 1.51619,-4.2410827 0,-1.252573 -0.74811,-3.315066 -1.71721,-4.356326 -1.58102,-1.639046 -2.2277,-2.219478 -7.21248,-2.184879 z m -50.91266,0.06253 -4.24315,0.01447 -5.15627,12.5336007 -5.23328,-12.4788247 h -4.33978 l 0.0465,18.2097417 h 3.89123 v -8.498708 l 3.83904,8.513175 3.4122,0.03204 4.1832,-8.861475 0.0202,8.955008 h 3.58015 z m 0.84026,0.02273 v 9.1400107 l -0.0326,9.304857 3.63802,0.0093 0.0413,-3.439584 0.0744,-3.108854 h 1.3994 c 6.0885,0 9.04064,-6.3772397 4.809,-10.3885117 -1.38283,-1.310831 -2.24548,-1.514187 -6.42389,-1.516187 z m 12.43542,0 v 6.6068317 c 0,6.364581 0.0232,6.658765 0.62373,8.016564 0.71826,1.624132 2.38866,3.193191 3.83181,3.599262 2.63806,0.742292 5.57126,-0.550695 6.79545,-2.995165 0.64744,-1.293416 0.65526,-1.390502 0.65526,-8.268228 V 3.4618013 h -1.85209 -1.85208 v 6.7277537 c -0.18709,3.49249 0.4516,5.219769 -0.36949,7.041949 -0.5414,1.201481 -3.02667,1.156674 -3.66851,-0.312126 -0.32285,-0.738611 -0.45992,-1.60401 -0.45992,-7.1292797 v -6.328297 h -1.85208 z m 12.7,0 0.047,3.816821 2.7311,0.01963 0.0941,14.6068597 h 3.51607 l 5.3e-4,-14.6068597 3.08973,-0.0186 0.0465,-3.817853 z m 10.05416,0 v 9.0836827 l 0.0362,9.353949 c 1.82775,0.0396 4.73539,0.0568 4.90306,0.0832 h 4.58576 v -1.852083 -1.852084 h -2.77812 -2.77813 v -1.719791 -1.719792 h 2.77813 2.77812 V 12.85451 10.870135 h -2.77812 -2.77813 V 9.0180523 7.1659673 h 2.77813 2.77812 v -1.852082 -1.852083 h -4.7625 z m -31.48541,3.968749 1.65364,0.0041 c 1.51217,0.0037 2.21486,0.264375 2.54042,0.970485 0.30626,0.664261 0.26857,1.425927 -0.34469,2.2939157 -0.56381,0.608391 -0.85845,0.700217 -2.24895,0.700217 h -1.60042 V 9.4148943 Z m 47.15267,0.27957 c 0.84541,0.005 1.78447,0.02817 2.15853,0.101801 0.74811,0.14727 1.77073,0.857583 1.81953,2.117186 -0.0201,0.9999377 -0.24983,1.6515317 -1.90686,1.9513017 -1.48531,0.04274 -3.6556,0.04237 -3.6556,0.04237 l -0.0129,-4.2043927 c 0,0 0.7519,-0.0132 1.59732,-0.0083 z M 21.409424,10.81174 v 4.556313 l -3.387391,-0.01707 z m 82.754126,7.153053 c -0.0131,0.01908 -0.0279,0.03707 -0.0398,0.05684 -0.0119,0.01979 0.0301,-0.04248 0.0403,-0.05633 z m -11.236011,0.103351 c 0.02106,0.03189 0.04239,0.06351 0.0646,0.09457 0.0045,0.0024 0.009,0.0045 0.01344,0.0067 -0.01117,-0.01791 -0.02222,-0.03845 -0.03411,-0.0584 -0.01288,-0.01188 -0.02971,-0.02949 -0.04392,-0.04289 z m 0.07545,0.01138 c 0.01767,0.03143 0.03406,0.0613 0.04082,0.07907 0.01003,0.01386 0.03334,0.04564 0.03617,0.04909 0.0067,0.0079 -0.01804,-0.03165 -0.077,-0.128159 z m 0.932242,0.603065 c 0.0271,0.01696 0.0204,0.01492 0.0393,0.02739 0.005,0.0024 0.009,0.0048 0.0139,0.0072 0.0188,0.0097 -0.0712,-0.04588 -0.0532,-0.03462 z m -0.26975,0.763778 c 7.9e-4,1.51e-4 0.001,5.29e-4 0.002,5.29e-4 0.003,5.29e-4 0.006,5.29e-4 0.009,0.0011 -10e-4,-5.29e-4 -0.003,-5.29e-4 -0.004,-0.0011 -0.002,-1.69e-4 -0.005,-1.98e-4 -0.007,-5.29e-4 z m 2.38073,0.238744 c -0.006,0.0019 -0.0114,0.003 -0.0171,0.0047 0.0165,2.64e-4 0.0331,7.93e-4 0.0496,0.0011 0.0368,2.65e-4 0.14734,0.0016 0.11059,0 -0.0479,-0.0021 -0.0957,-0.0011 -0.14366,-0.0016 1.3e-4,-0.0013 5.3e-4,-0.0027 5.3e-4,-0.0041 z m -0.91519,0.917773 c -0.001,0.0038 -0.002,0.0076 -0.004,0.01138 0.0868,0.108815 0.18701,0.222982 0.1416,0.161231 -0.0436,-0.05933 -0.0915,-0.115469 -0.13798,-0.172601 z m -91.4486811,3.76101 v 1.058333 1.058333 H 92.355481 181.02811 l 1.28571,-0.980818 c 0.70707,-0.539221 1.28519,-1.015434 1.28519,-1.058333 0,-0.0428 -40.48126,-0.07751 -89.958339,-0.07751 z m 21.6467411,4.606435 0.0181,2.070158 10.758517,1.226799 -0.03514,-2.078942 z M 3.9004149,29.10314 v 2.210199 h 9.4567861 l 0.01757,1.066602 c -0.0371,2.571898 -1.355349,3.277084 -4.6410621,3.186885 l -3.759459,0.06511 -0.04754,1.960602 3.30419,-0.0041 c 1.9233211,-0.0024 2.8938471,0.05042 4.0674541,-0.40876 1.072584,-0.419661 1.492036,-1.059902 2.162143,-2.143022 0.526021,-1.30071 0.590995,-1.876134 0.594794,-3.72742 l 0.0041,-2.182813 z m 84.1762561,0.0155 -1.315164,0.0078 v 3.192569 c 0,3.16512 0.152627,3.876373 1.028877,4.795573 0.36789,0.385929 1.070644,0.449423 5.122685,0.46302 l 4.696352,0.0155 V 36.66706 35.741019 h -4.23333 c -3.922642,0 -4.273122,-0.03978 -4.778521,-0.545188 -0.299961,-0.299989 -0.391364,-1.24257 -0.344165,-1.488281 l 9.356016,-0.01241 v -0.87023 c 0,-0.43321 -0.10844,-0.787548 -0.24133,-0.787548 -0.13286,0 -0.1067,-0.357889 0.0584,-0.795301 0.20363,-0.7478 0.17884,-0.966287 -0.35811,-1.585949 -0.53776,-0.438518 -1.03817,-0.339953 -1.53944,-0.239263 -0.83064,0.324268 -1.02531,1.273799 -0.64855,1.948201 0.28734,0.514363 0.43758,0.622702 -0.0408,0.622702 -0.22285,0 -0.49032,-0.128984 -0.57412,-0.347265 -0.12305,-0.320681 -0.73134,-0.396875 -3.166733,-0.396875 h -3.014317 z m -51.05683,0.0078 v 2.645834 2.645833 h 0.79375 0.79375 V 31.772274 29.12644 h -0.79375 z m 37.041666,0 -10.903728,0.08682 v 2.110465 l 9.200473,0.0021 0.04599,4.255553 -9.174117,0.06046 -0.01654,1.951302 h 5.423959 5.423958 v -4.233363 z m 11.96671,0 -1.717723,0.02687 c -0.008,0.388951 -0.0062,0.636625 -0.0062,1.483114 -0.0021,1.840971 -0.05806,3.387061 -0.69505,4.024043 -0.81765,0.81765 -2.121477,1.080556 -5.353677,1.080556 h -3.135725 v 0.926041 l 5.29e-4,0.926042 h 3.845761 c 3.199649,0 3.475342,-0.0069 4.564063,-0.459404 1.854668,-1.186691 2.385165,-2.12561 2.509406,-5.318538 z m -38.452433,0.03411 -1.288809,0.0186 c -0.01355,0.28702 0.01199,1.452865 -0.03462,2.762105 -0.1108,1.65803 -0.315624,1.866043 -0.490411,2.192631 -0.51118,0.955151 -1.848323,1.342554 -4.632274,1.342554 h -2.522326 v 1.058333 1.058334 h 2.950723 c 2.921,0 3.231203,-0.207357 4.360458,-0.953432 1.623057,-1.236289 1.684652,-2.031679 1.684652,-5.00848 0,-1.70507 -0.02739,-2.47065 -0.02739,-2.47065 z m 71.478326,0.02791 -0.0481,0.991155 c -0.19679,0.882851 -0.64775,1.698403 -1.5906,1.692402 l 0.0181,2.25361 c 1.10299,0.0545 1.90741,-0.715462 2.51148,-1.758032 l 0.43253,-0.859896 6.37325,-0.04031 c 0,0 0.0298,0.659982 -0.0486,0.864031 -0.26263,0.299911 -0.7172,0.234612 -3.05925,0.234612 h -3.0148 v 1.058333 1.058333 h 2.51354 2.58382 c 0,0.236369 -0.1273,0.669846 -0.71313,0.857827 -0.73746,0.236561 -2.09214,0.200496 -3.60289,0.200507 h -2.89801 v 0.926041 0.926042 l 3.63802,-0.01188 3.63802,-0.01241 1.19063,-1.171503 1.19062,-1.171507 0.0894,-3.056143 0.0424,-2.962611 z m -44.132707,0.04961 0.01138,2.086695 c 2.084438,0 4.344633,-0.01188 6.429063,-0.01188 l -0.02429,-2.054656 z m 21.218858,0.726054 c 0.47126,-0.02999 0.77461,0.189516 0.8077,0.749826 0.0536,0.90855 -1.47112,1.139103 -1.57406,0.220142 -0.0838,-0.74707 0.1969,-0.933768 0.76636,-0.969968 z m -80.614199,1.01441 V 33.0952 l 7.237285,-0.0011 c 0,0.314672 0.204359,0.83284 -1.250571,0.818039 l -2.303219,-0.02326 -0.04909,1.719792 -3.571875,0.03927 v 1.945103 h 1.865003 c 1.676612,0 1.906913,-0.07051 2.490285,-0.559658 0.356891,-0.385051 0.671795,-1.138116 0.671795,-1.244367 0,-0.106299 0.885434,0.0085 1.709973,-0.05995 1.780935,-0.120308 2.258777,-0.769035 2.258777,-3.060276 v -1.690336 z m 83.654329,0.330729 -0.0155,2.050521 h 4.323769 c 0.45208,-7.94e-4 0.60848,0.492238 0.60048,1.208712 l 0.003,1.040246 -5.688549,0.05116 v 1.932696 h 4.365629 4.36563 l -0.0295,-1.975588 c -0.68067,0.0051 -1.02961,0.004 -1.69033,-0.0088 l -0.0605,-4.289142 z m -73.831673,0.598413 0.02635,1.974557 10.760583,1.084688 -0.02376,-1.954922 z m 23.312789,0.393774 v 1.058334 1.058333 h 5.159375 5.159375 V 33.359784 32.30145 h -5.159375 z m 57.679173,0.264584 -0.0233,2.057754 10.62881,-0.04909 0.01,-2.008661 z m -80.966123,2.176094 0.03669,1.932697 10.734744,0.980821 -0.01913,-1.889292 z" />
  </g>
</svg>
