<?xml version="1.0" encoding="UTF-8" standalone="no"?>
<!-- Created with Inkscape (http://www.inkscape.org/) -->

<svg
   xmlns:dc="http://purl.org/dc/elements/1.1/"
   xmlns:cc="http://creativecommons.org/ns#"
   xmlns:rdf="http://www.w3.org/1999/02/22-rdf-syntax-ns#"
   xmlns:svg="http://www.w3.org/2000/svg"
   xmlns="http://www.w3.org/2000/svg"
   xmlns:sodipodi="http://sodipodi.sourceforge.net/DTD/sodipodi-0.dtd"
   xmlns:inkscape="http://www.inkscape.org/namespaces/inkscape"
   width="225mm"
   height="45mm"
   viewBox="0 0 225 45"
   version="1.1"
   id="svg8"
   inkscape:version="0.92.0 r15299"
   sodipodi:docname="superfamicom.svg">
  <defs
     id="defs2" />
  <sodipodi:namedview
     id="base"
     pagecolor="#ffffff"
     bordercolor="#666666"
     borderopacity="1.0"
     inkscape:pageopacity="0.0"
     inkscape:pageshadow="2"
     inkscape:zoom="0.35"
     inkscape:cx="-274.91533"
     inkscape:cy="682.89828"
     inkscape:document-units="mm"
     inkscape:current-layer="layer1"
     showgrid="false"
     inkscape:snap-global="false"
     inkscape:window-width="1366"
     inkscape:window-height="706"
     inkscape:window-x="-8"
     inkscape:window-y="-8"
     inkscape:window-maximized="1" />
  <metadata
     id="metadata5">
    <rdf:RDF>
      <cc:Work
         rdf:about="">
        <dc:format>image/svg+xml</dc:format>
        <dc:type
           rdf:resource="http://purl.org/dc/dcmitype/StillImage" />
        <dc:title></dc:title>
      </cc:Work>
    </rdf:RDF>
  </metadata>
  <g
     inkscape:label="Layer 1"
     inkscape:groupmode="layer"
     id="layer1"
     transform="translate(0,-252)">
    <text
       xml:space="preserve"
       style="font-style:normal;font-weight:normal;font-size:10.58333302px;line-height:6.61458302px;font-family:sans-serif;letter-spacing:0px;word-spacing:0px;fill:#000000;fill-opacity:1;stroke:none;stroke-width:0.26458332"
       x="9.3830271"
       y="27.441736"
       id="text4714"><tspan
         sodipodi:role="line"
         x="9.3830271"
         y="33.78994"
         style="stroke-width:0.26458332"
         id="tspan4716" /></text>
    <g
       id="g172"
       transform="translate(6.6523809,124.73216)">
      <path
         sodipodi:nodetypes="cccccccccccccccccccccscccsccccccccccccccscccccccscccsscccccscccccsccccccscccccccccccccsccccscscccccccsssccccsscscccccccsccscscccccccccccccccccccccccccccscccscssccccccccccccccc"
         inkscape:connector-curvature="0"
         id="path4509"
         d="m 116.10454,160.71205 v -1.06461 h 3.42645 3.42645 v -1.63241 -1.6324 h -3.42645 -3.42645 v -0.92266 -0.92267 h 4.1376 4.1376 v 3.61968 3.61968 h -4.1376 -4.1376 z m 9.3096,0.0809 v -1.00356 l 2.42438,-8e-4 c 2.64121,-8.6e-4 3.26483,-0.11266 3.83027,-0.68668 0.60075,-0.60985 0.72756,-1.12013 0.72756,-2.92764 v -1.63697 h 0.6465 0.6465 v 2.03249 c 0,2.4546 -0.16522,3.20768 -0.86886,3.9603 -0.26883,0.28755 -0.77972,0.66969 -1.13529,0.84921 -0.60053,0.30318 -0.84648,0.32962 -3.45878,0.3718 l -2.81228,0.0454 z m -18.48991,-0.0693 0.002,-1.68678 8.2729,0.95754 v 1.64035 z m -48.358225,-0.22448 v -0.99363 l 1.842526,-0.003 c 1.520065,-0.002 1.933041,-0.0493 2.359727,-0.26697 0.956523,-0.48799 1.745551,-1.69083 1.745551,-2.66103 v -0.33369 h -2.779952 -2.779952 v -0.99363 -0.99364 h 3.491102 3.491103 v 1.48513 c 0,1.15035 -0.05983,1.66071 -0.265452,2.26402 l -0.265452,0.77888 0.976602,1.24467 c 0.537131,0.68457 0.976603,1.29462 0.976603,1.35567 0,0.061 -0.4044,0.11099 -0.898666,0.11099 H 65.56108 l -0.480764,-0.63142 -0.480763,-0.63141 -0.366953,0.28686 c -0.201823,0.15776 -0.714531,0.44189 -1.139352,0.6314 -0.694988,0.31003 -0.960567,0.34457 -2.649823,0.34457 h -1.87742 z m 14.352309,-0.0507 v -1.04439 l 0.777613,-0.0892 c 0.85182,-0.0978 1.278738,-0.33752 1.636601,-0.91922 0.189472,-0.30798 0.242883,-0.73892 0.280271,-2.26131 l -0.05001,-1.90721 1.30835,-1e-5 0.03148,2.48681 c -0.04062,2.45839 -0.04098,2.46097 -0.433203,3.15834 -0.264181,0.46972 -0.621704,0.8488 -1.09333,1.15927 -0.607198,0.39973 -0.818112,0.46133 -1.579284,0.46133 h -0.878495 z m 6.593227,0.58306 c -0.471628,-0.31048 -0.829149,-0.68957 -1.093331,-1.15927 -0.392222,-0.69737 -0.392576,-0.69995 -0.433203,-3.15835 l 0.03148,-2.48681 h 1.253202 l 0.0051,1.90723 c 0.03739,1.52238 0.0908,1.95332 0.280271,2.2613 0.357863,0.5817 0.78478,0.82149 1.6366,0.91922 l 0.777614,0.0892 v 1.0444 1.04439 h -0.878502 c -0.761172,0 -0.972086,-0.0616 -1.579283,-0.46133 z m 11.379485,-0.60328 v -1.06461 h 2.063947 c 1.76848,0 2.16603,-0.0419 2.77701,-0.29288 1.00426,-0.4125 1.23615,-0.78719 1.23615,-1.99744 v -0.97452 h -3.29716 -3.297148 v -0.92267 -0.92266 h 4.008298 4.00831 v 1.98195 c 0,2.48595 -0.20632,3.22086 -1.1717,4.17373 -0.96567,0.95315 -1.45805,1.08368 -4.08799,1.08368 h -2.239717 z m 8.663107,0.21292 v -0.85169 h 1.014357 c 1.15514,0 1.44234,-0.19301 1.44234,-0.96932 V 158.37 l 1.60386,-0.0264 c 1.30684,-0.0215 1.12048,-0.3399 1.12048,-0.83381 l -2.72434,0.009 h -2.844597 v -0.78072 -0.78071 h 3.491097 3.4911 v 1.21112 c 0,2.16181 -0.48449,2.76197 -2.23042,2.76289 l -1.00208,5.4e-4 v 0.43229 c 0,0.26972 -0.11936,0.56333 -0.31737,0.78072 -0.29684,0.32587 -0.40561,0.34842 -1.68091,0.34842 h -1.363517 z m 7.370097,-2.33059 0.0264,-1.66036 8.23682,0.98392 v 1.64036 z m -40.08302,-0.57935 v -0.92266 h 3.103202 3.103202 v 0.92266 0.92267 H 69.944412 66.84121 Z m 15.25741,0 v -0.92266 h 3.103202 3.103202 v 0.92266 0.92267 H 85.201822 82.09862 Z m -1.745551,-0.9083 c -0.826672,-0.39257 -1.041865,-1.56114 -0.414349,-2.25004 0.281471,-0.309 0.475615,-0.39036 0.931549,-0.39036 1.604558,0 1.775704,2.4702 0.187,2.69904 -0.24508,0.0353 -0.56197,0.009 -0.7042,-0.0587 z m 0.88905,-1.18277 c 0.108443,-0.18904 0.09158,-0.29996 -0.07309,-0.48074 -0.387347,-0.42524 -0.965242,0.13052 -0.616042,0.59244 0.201047,0.26594 0.500333,0.21743 0.689132,-0.11166 z m 25.682111,0.25731 0.0143,-1.68677 8.26088,0.95752 v 0.82018 0.88618 z m 18.48991,-0.43741 v -0.92266 h 2.4567 2.45671 v 0.92266 0.92267 h -2.45671 -2.4567 z"
         style="fill:#000000;stroke-width:0.13547662" />
      <path
         sodipodi:nodetypes="ccccsccccsccccccccccsccccscccccsccccccccccccscccsccccccccccccsccccscscccscsscccsscscccccccscccccsccccccccccccccccccsccccccccscsccccccccccccsccscccccccccccccscccccccccsccccccsccccccccccccccccccccccccscccccccccscccccccccccccccccccccsccsscscccccsccccccsccccccccccccc"
         inkscape:connector-curvature="0"
         id="path4677"
         d="m 58.561811,150.61437 v -1.01314 h 3.499419 3.499419 l 0.33624,-0.35525 c 0.408078,-0.43115 0.43895,-1.0706 0.07467,-1.54645 -0.25561,-0.33387 -0.325323,-0.3434 -3.047981,-0.41665 -2.154735,-0.0579 -2.895082,-0.12776 -3.265845,-0.30783 -1.732512,-0.84142 -2.193992,-3.5012 -0.875088,-5.04363 0.820768,-0.95987 1.14819,-1.01426 6.105025,-1.01426 h 4.35921 v 1.01314 1.01314 h -3.636407 -3.636407 l -0.33624,0.35527 c -0.408077,0.43115 -0.438949,1.07059 -0.07467,1.54643 0.255601,0.33387 0.325322,0.3434 3.047981,0.41666 2.154735,0.0579 2.895082,0.12775 3.265844,0.30782 1.732512,0.84143 2.193992,3.50121 0.875089,5.04363 -0.817154,0.95564 -1.162135,1.01427 -5.968038,1.01427 H 58.56181 Z m 14.269804,0.63635 c -0.393621,-0.20724 -0.866149,-0.58524 -1.050068,-0.84002 -0.723229,-1.00182 -0.75384,-1.22551 -0.75384,-5.50869 v -3.98485 h 1.369876 1.369876 l 5.71e-4,3.65455 c 4.09e-4,3.41021 0.019,3.68658 0.276978,4.13364 0.428777,0.74311 0.953022,0.89588 3.074275,0.89588 h 1.853737 v -4.34203 -4.34204 h 1.438373 1.438375 v 5.35517 5.35519 H 77.698534 73.547298 Z M 83.90456,146.3447 v -5.28281 h 4.22222 c 4.696903,0 5.110573,0.064 5.887563,0.91101 0.55474,0.60471 0.84943,1.51363 0.84848,2.61701 -8.7e-4,1.21248 -0.20579,1.89222 -0.76801,2.54972 -0.76428,0.89381 -1.30221,1.01426 -4.529666,1.01426 h -2.783838 v 1.73682 1.73681 H 85.342934 83.90456 Z m 7.335077,-0.57235 c 0.439256,-0.4641 0.481186,-1.73908 0.07467,-2.27012 -0.251413,-0.32856 -0.343439,-0.34346 -2.397181,-0.38806 l -2.135716,-0.0464 v 1.5299 1.5299 h 2.060943 c 2.005622,0 2.070097,-0.009 2.397293,-0.35526 z m 7.863376,5.68785 c -1.14265,-0.32259 -2.48536,-1.88606 -2.90161,-3.37867 -0.20792,-0.74556 -0.20792,-2.72809 0,-3.47364 0.43294,-1.55248 1.76721,-3.06422 2.99208,-3.39009 0.33791,-0.0899 1.981157,-0.15591 3.881537,-0.15591 h 3.29554 v 1.08552 1.0855 h -2.99526 c -2.83289,0 -3.01503,0.0164 -3.36002,0.30315 -0.348947,0.29001 -0.905077,1.25632 -0.905077,1.57263 0,0.10043 1.208667,0.15051 3.630177,0.15051 h 3.63018 v 1.01313 1.01315 h -3.63018 c -2.44328,0 -3.630177,0.0497 -3.630177,0.15192 0,0.24348 0.41768,1.0489 0.73522,1.41774 0.598857,0.69561 0.854527,0.74609 3.778587,0.74609 h 2.74655 v 1.01314 1.01315 l -3.39045,-0.015 c -1.86474,-0.009 -3.609437,-0.0768 -3.877097,-0.15236 z m 9.048387,-5.1155 v -5.28281 h 4.42771 c 4.92143,0 5.31072,0.0583 6.09304,0.91101 0.23465,0.25578 0.52171,0.7498 0.63795,1.09784 0.24328,0.72856 0.27524,2.15644 0.066,2.95226 -0.18723,0.71234 -0.87596,1.53029 -1.53902,1.82783 l -0.52736,0.23662 1.24058,1.66149 c 0.6823,0.91381 1.24156,1.71032 1.24279,1.77002 8.5e-4,0.0597 -0.75294,0.10797 -1.67589,0.10717 l -1.6781,-8.7e-4 -1.07121,-1.73546 -1.07119,-1.73547 h -1.63431 -1.63432 v 1.73682 1.73681 h -1.43837 -1.43837 z m 7.74604,-0.57235 c 0.43927,-0.46411 0.48119,-1.73909 0.0747,-2.27012 -0.25366,-0.33135 -0.33245,-0.34307 -2.60277,-0.3874 l -2.34119,-0.0457 v 1.52926 1.52924 h 2.26652 c 2.22379,0 2.27287,-0.007 2.60277,-0.35527 z m 10.77288,2.27298 0.043,-3.58217 c 0.26383,-1.58048 1.38169,-2.47166 2.51444,-3.06635 0.43736,-0.22998 0.95392,-0.26811 4.16371,-0.30736 l 3.66443,-0.0448 v 1.09414 1.09414 h -3.06374 c -3.45458,0 -3.72548,1.00776 -4.28099,2.15824 1.22888,-0.0475 -0.47885,0.0128 3.64607,0.0128 h 3.69866 v 1.08552 1.08551 h -3.69866 -3.69869 v 2.02629 2.02627 h -1.51553 -1.51556 z m 13.33337,3.3509 c -1.8842,-0.72867 -2.4703,-3.50057 -1.08318,-5.12277 0.7709,-0.90155 1.28951,-1.01426 4.66665,-1.01426 1.93049,0 2.93896,0.002 2.93896,0.002 0.0452,-0.5087 -0.43918,-1.29234 -0.92321,-1.72532 -0.34608,-0.28763 -0.52506,-0.30315 -3.497,-0.30315 h -3.13225 v -1.09401 -1.09402 l 3.73292,0.0447 3.53881,0.0498 c 2.28292,0.25491 3.26439,1.8589 3.27634,3.57975 v 3.45418 3.45418 l -4.48634,-0.0103 c -3.56977,-0.008 -4.59777,-0.0532 -5.0317,-0.22108 z m 6.50431,-2.95287 v -1.15788 h -2.19803 c -2.15107,0 -2.20522,0.008 -2.53428,0.35527 -0.53126,0.5613 -0.39399,1.5385 0.25491,1.81474 0.16461,0.07 1.23935,0.13153 2.38833,0.13657 l 2.08907,0.009 z m 4.79457,-2.09866 v -5.28281 l 6.13021,0.003 c 6.83793,0.003 6.73114,-0.0103 7.66437,1.02846 0.82726,0.92124 0.86311,1.15181 0.86311,5.54913 v 3.98485 h -1.43836 -1.43837 v -3.77757 -3.77758 l -0.46576,-0.49209 c -0.45301,-0.47864 -0.49612,-0.4921 -1.57536,-0.4921 h -1.10961 v 4.26967 4.26967 h -1.43838 -1.43835 v -4.26967 -4.26967 h -1.43838 -1.43837 v 4.26967 4.26967 h -1.43839 -1.43836 z m 16.71252,0 v -5.28281 h 1.43837 1.43837 v 5.28281 5.28282 h -1.43837 -1.43837 z m 7.79217,5.083 c -1.64617,-0.62153 -2.68437,-2.03783 -3.02293,-4.12383 -0.3805,-2.34431 0.59486,-4.69897 2.37893,-5.74316 l 0.72863,-0.42645 3.52743,-0.0451 3.52743,-0.0451 v 0.94967 0.94967 h -2.80784 -2.80786 l -0.54035,0.51577 c -0.80419,0.76763 -1.16371,1.65907 -1.16371,2.88549 0,1.22642 0.35952,2.11785 1.16371,2.88549 l 0.54035,0.51577 h 2.80786 2.80784 v 0.94077 0.94078 l -3.32195,-0.006 c -2.35571,-0.005 -3.46609,-0.0608 -3.81754,-0.19347 z m 11.09602,0.006 c -1.65859,-0.64318 -2.68466,-2.04465 -3.02294,-4.1289 -0.38048,-2.34432 0.59487,-4.69898 2.37894,-5.74317 l 0.72863,-0.42644 h 3.2192 3.21922 l 0.72862,0.42644 c 1.28691,0.75321 2.08995,2.04434 2.37892,3.82483 0.38051,2.34431 -0.59485,4.69897 -2.37892,5.74317 l -0.72862,0.42644 -3.01374,0.0349 c -2.23483,0.0258 -3.14181,-0.0147 -3.50931,-0.15727 z m 5.22988,-1.8694 c 1.80789,-1.28724 2.12891,-4.05433 0.67351,-5.80565 -0.69218,-0.83294 -1.03398,-0.95903 -2.59956,-0.95903 -1.56558,0 -1.90738,0.12609 -2.59956,0.95903 -1.45539,1.75132 -1.13437,4.51841 0.67352,5.80565 0.40629,0.28928 0.63004,0.3273 1.92604,0.3273 1.29602,0 1.51976,-0.038 1.92605,-0.3273 z m 6.15623,-3.21869 v -5.28282 l 6.13022,0.003 c 6.83793,0.003 6.73114,-0.0103 7.66436,1.02848 0.82725,0.92124 0.86312,1.1518 0.86312,5.54912 v 3.98485 h -1.43836 -1.43838 v -3.77758 -3.77756 l -0.46576,-0.49211 c -0.45301,-0.47862 -0.49612,-0.49209 -1.57535,-0.49209 h -1.10962 v 4.26967 4.26967 h -1.43837 -1.43836 v -4.26967 -4.26967 h -1.43837 -1.43838 v 4.26967 4.26967 h -1.43838 -1.43837 z"
         style="fill:#000000;stroke-width:0.14080793" />
      <text
         id="text4759"
         y="155.75801"
         x="134.25679"
         style="font-style:normal;font-weight:normal;font-size:3.93898201px;line-height:2.46186352px;font-family:sans-serif;letter-spacing:0px;word-spacing:0px;fill:#000000;fill-opacity:1;stroke:none;stroke-width:0.09847454"
         xml:space="preserve"><tspan
           style="stroke-width:0.09847454"
           y="155.75801"
           x="134.25679"
           id="tspan4757"
           sodipodi:role="line">®</tspan></text>
      <text
         id="text4759-5"
         y="142.04515"
         x="213.14424"
         style="font-style:normal;font-weight:normal;font-size:3.93898201px;line-height:2.46186352px;font-family:sans-serif;letter-spacing:0px;word-spacing:0px;fill:#000000;fill-opacity:1;stroke:none;stroke-width:0.09847454"
         xml:space="preserve"><tspan
           style="stroke-width:0.09847454"
           y="142.04515"
           x="213.14424"
           id="tspan4757-9"
           sodipodi:role="line">®</tspan></text>
      <g
         transform="matrix(0.17925291,0,0,0.17873009,52.591779,136.16957)"
         id="g125">
        <path
           style="opacity:1;fill:#ed1f24;fill-opacity:1;stroke-width:0.26726952"
           d="m -49.143253,21.319112 c -9.451763,-0.197654 -18.762217,2.555946 -27.151313,6.768578 -17.047141,8.588907 -29.554714,25.492906 -32.805664,44.301264 -0.64935,3.446769 -0.89459,6.950022 -1.09614,10.446298 5.16624,0.734493 10.473669,0.442925 15.55768,1.690613 16.053885,3.406801 30.585018,13.524627 39.280187,27.432825 5.977877,9.37117 9.027724,20.32335 9.462296,31.36476 l 0.08941,2.42382 c 13.273908,-0.9996 27.67721,-5.76223 37.8501797,-14.47363 C 4.525754,120.9313 12.632848,105.52357 14.136605,89.392476 14.584681,82.111476 14.419618,74.699026 12.375688,67.644414 8.2854381,51.500579 -2.8095045,37.396152 -17.234607,29.175995 c -7.63293,-4.216252 -16.157174,-6.974782 -24.864914,-7.659418 -2.344261,-0.154132 -4.694568,-0.209613 -7.043732,-0.197465 z"
           id="path103"
           inkscape:connector-curvature="0"
           sodipodi:nodetypes="cccccccccccccc" />
        <path
           style="opacity:1;fill:#44baeb;fill-opacity:1;stroke-width:0.53453904"
           d="m -171.61898,-44.515111 c -13.62687,0.0094 -27.25849,4.369406 -38.11026,12.665467 -14.88032,11.111028 -24.33414,28.9854593 -25.36783,47.506054 l -0.32555,2.774601 c 10.59057,0.445269 22.9946,2.535683 32.42734,7.619556 11.81543,6.366807 21.74428,16.560565 27.53117,28.652121 4.19244,8.727911 5.8418,18.435452 6.49665,28.013191 6.49637,0.234718 12.84293,-1.621686 18.98085,-3.54005 16.99061,-5.869739 30.97499,-19.462705 37.63725,-36.12334 4.40567,-10.321028 5.48821,-21.836704 4.12359,-32.911486 -2.65036,-18.7749344 -14.11556,-36.061619 -30.41888,-45.755808 -9.88693,-6.032132 -21.39917,-9.087226 -32.97433,-8.900306 z"
           id="path105"
           inkscape:connector-curvature="0"
           sodipodi:nodetypes="cccccccccccc" />
        <path
           style="opacity:1;fill:#efea17;fill-opacity:1;stroke-width:0.53453904"
           d="m -128.38854,124.6172 c -16.46587,0.23193 -33.22076,2.84194 -48.16967,10.02523 -8.77568,4.29876 -17.23018,10.89288 -20.64629,20.37084 -0.87445,3.01497 -0.71134,6.25372 -0.41031,9.34465 3.13755,11.27045 13.66609,18.45248 23.78041,23.0384 17.10609,7.56413 36.18143,9.63225 54.71824,8.48956 16.51436,-0.77058 33.332209,-4.51672 47.383262,-13.54323 5.974614,-3.9711 12.002196,-9.10839 14.047014,-16.17967 0.960786,-3.32254 0.689572,-6.9431 0.223758,-10.35079 -0.654134,-4.78535 -4.086285,-8.71123 -7.447605,-12.01993 -10.162339,-9.48075 -23.737197,-14.25948 -37.161579,-16.87822 -8.66488,-1.65121 -17.49992,-2.36576 -26.31723,-2.29684 z"
           id="path113"
           inkscape:connector-curvature="0"
           sodipodi:nodetypes="cccccccssccc" />
        <path
           style="opacity:1;fill:#7cc24a;fill-opacity:1;stroke-width:0.53453904"
           d="m -255.71772,63.872585 c -8.45036,0.01866 -16.95297,0.46585 -25.18244,2.528528 -11.39497,2.672316 -22.96834,6.664486 -31.90658,14.490073 -5.08153,4.433964 -8.9095,10.867765 -8.55347,17.795295 0.15861,6.079349 3.77878,11.541809 8.12818,15.548789 8.48347,7.41096 19.28564,11.54326 30.04778,14.38013 17.52653,4.36995 36.03427,4.35996 53.70648,0.83426 11.73412,-2.50825 23.56389,-6.53491 32.9337,-14.27219 3.89818,-3.35888 7.75493,-7.509 8.76225,-12.64884 0.63768,-3.253732 0.76432,-6.767487 -0.11989,-9.97459 -2.08965,-7.579355 -8.69431,-12.996987 -15.25626,-16.92284 -10.57042,-6.151715 -22.62329,-9.317931 -34.65308,-11.036381 -5.9436,-0.62946 -11.9342,-0.733378 -17.90667,-0.722234 z"
           id="path117"
           inkscape:connector-curvature="0"
           sodipodi:nodetypes="ccccccccssccc" />
      </g>
    </g>
  </g>
</svg>
